<?xml version="1.0" standalone="no"?>
<!DOCTYPE svg PUBLIC "-//W3C//DTD SVG 20010904//EN"
 "http://www.w3.org/TR/2001/REC-SVG-20010904/DTD/svg10.dtd">
<svg version="1.0" xmlns="http://www.w3.org/2000/svg"
 width="980.000000pt" height="980.000000pt" viewBox="0 0 980.000000 980.000000"
 preserveAspectRatio="xMidYMid meet">
<metadata>
Created by potrace 1.14, written by Peter Selinger 2001-2017
</metadata>
<g transform="translate(0.000000,980.000000) scale(0.100000,-0.100000)"
fill="#000000" stroke="none">
<path d="M7805 9771 c-182 -106 -459 -375 -3543 -3455 -2895 -2892 -3899
-3907 -4124 -4176 -122 -145 -138 -177 -138 -280 0 -122 23 -166 153 -294 123
-121 307 -278 477 -408 581 -441 1227 -763 1960 -974 412 -119 840 -171 1476
-181 624 -9 933 22 1413 142 765 193 1463 529 2091 1009 366 279 747 655 1035
1021 690 878 1107 1941 1185 3020 13 179 13 715 0 910 -29 440 -85 780 -185
1128 -228 793 -580 1474 -1074 2077 -142 174 -327 375 -387 421 -71 54 -113
68 -209 68 -70 1 -86 -3 -130 -28z m218 -899 c466 -540 854 -1357 1036 -2182
65 -292 66 -312 66 -1010 0 -704 -1 -720 -70 -1025 -344 -1521 -1262 -2736
-2595 -3433 -534 -279 -1242 -503 -1710 -541 -325 -26 -1135 -21 -1370 9 -485
62 -1208 310 -1731 595 -296 161 -508 304 -731 498 l-128 110 152 159 c83 87
155 161 159 164 5 2 86 -53 181 -123 317 -234 525 -363 813 -503 700 -340
1502 -511 2218 -471 1404 78 2616 723 3464 1842 583 769 903 1725 903 2693 0
599 -115 1189 -342 1761 -156 395 -348 730 -625 1093 -68 89 -126 168 -129
176 -5 13 206 224 276 275 33 24 46 28 61 21 10 -6 56 -54 102 -108z m-811
-805 c390 -488 671 -1172 792 -1924 l23 -143 -1237 0 -1237 0 -15 38 c-8 20
-53 127 -99 236 l-83 200 669 664 c369 365 762 752 874 858 175 168 205 193
219 182 8 -7 51 -57 94 -111z m-2332 -2204 c16 -76 8 -309 -14 -388 -9 -33
-37 -103 -63 -155 -39 -80 -61 -109 -137 -186 -77 -76 -106 -98 -186 -137
-139 -69 -226 -88 -390 -88 -117 1 -202 10 -216 23 -9 9 134 174 297 343 327
338 652 644 686 645 6 0 17 -26 23 -57z m3135 -525 c-2 -13 -12 -75 -21 -138
-62 -445 -208 -910 -414 -1315 -122 -241 -294 -506 -419 -646 l-48 -54 -49 40
c-118 97 -334 304 -818 785 -722 717 -856 865 -856 941 0 16 14 63 31 106 17
43 42 107 54 143 13 36 32 86 44 113 l20 47 1241 0 1240 0 -5 -22z m-4495
-973 c80 -29 171 -63 203 -75 l57 -21 1 -362 c0 -199 4 -758 8 -1242 4 -484 6
-882 5 -884 -2 -2 -47 2 -101 9 -449 55 -989 220 -1353 412 -257 136 -614 364
-684 437 l-29 30 25 33 c139 182 1252 1337 1566 1625 93 84 118 103 135 97 12
-3 87 -30 167 -59z m1437 -3 c341 -295 1581 -1556 1644 -1674 13 -24 -52 -78
-256 -213 -274 -182 -527 -322 -719 -399 -193 -78 -597 -196 -823 -241 -136
-27 -358 -63 -362 -59 -7 6 20 2489 27 2495 6 6 274 111 347 137 55 19 73 14
142 -46z"/>
</g>
</svg>
